
1.17k → 962 bytes 80.03%
<svg xmlns="http://www.w3.org/2000/svg" id="Layer_1" version="1.1" viewBox="0 0 1920 2065.37"><defs><style>.st0 {
        fill: #cce5ff;
      }</style></defs><path d="M1433.01 1104.91c-265.37 0-477.81 212.45-477.81 477.81s212.45 477.81 477.81 477.81 477.81-212.45 477.81-477.81-212.45-477.81-477.81-477.81m0 629.34c-90.99 0-159.14-68.15-159.14-159.14s68.15-159.14 159.14-159.14 159.14 68.15 159.14 159.14-68.15 159.14-159.14 159.14M1433.01 2.7c-265.37 0-477.81 212.45-477.81 477.81s212.45 477.81 477.81 477.81 477.81-212.45 477.81-477.81S1698.38 2.7 1433.01 2.7m0 629.34c-90.99 0-159.14-68.15-159.14-159.14s68.15-159.14 159.14-159.14 159.14 68.15 159.14 159.14-68.15 159.14-159.14 159.14M485 548.66c-265.37 0-477.81 212.45-477.81 477.81S219.64 1504.28 485 1504.28s477.81-212.45 477.81-477.81S750.36 548.66 485 548.66m0 629.35c-90.99 0-159.14-68.15-159.14-159.14S394.01 859.73 485 859.73s159.14 68.15 159.14 159.14-68.15 159.14-159.14 159.14" class="st0"/></svg>