<svg width="37" height="38" viewBox="0 0 37 38" fill="none" xmlns="http://www.w3.org/2000/svg">
<g clip-path="url(#clip0_118_839)">
<path d="M21.54 38H3.9613C3.62136 38 3.34546 37.7299 3.34546 37.3971C3.34546 37.0642 3.62136 36.7941 3.9613 36.7941H21.54C21.8799 36.7941 22.1558 37.0642 22.1558 37.3971C22.1558 37.7299 21.8799 38 21.54 38Z" fill="#007FFF"/>
<path d="M1.91171 36.1191C0.857379 36.1191 0.00012207 35.2798 0.00012207 34.2427C0.00012207 33.9774 0.0592433 33.717 0.167632 33.4758L4.47855 24.1036C4.51304 24.0361 4.55245 23.9782 4.60665 23.9251L27.4816 1.59687C29.6592 -0.53514 33.1868 -0.53514 35.3644 1.59687C37.5421 3.72889 37.5421 7.18255 35.3644 9.31457L12.4648 31.6428C12.4106 31.6959 12.3515 31.7345 12.2825 31.7634L2.69506 35.9503C2.44872 36.0612 2.18268 36.1191 1.91171 36.1191ZM5.55751 24.6969L1.31064 33.9678C1.1924 34.2186 1.24659 34.5177 1.44859 34.7154C1.64566 34.9132 1.95605 34.9711 2.21224 34.8505L11.6568 30.7071L34.4727 8.45597C36.0985 6.73396 35.9901 4.04724 34.2313 2.45547C32.571 0.95534 30.014 0.950517 28.3537 2.45064L5.55751 24.6969Z" fill="#007FFF"/>
<path d="M23.6196 6.22912L21.4629 8.3333L28.453 15.2009L30.6097 13.0967L23.6196 6.22912Z" fill="#007FFF"/>
<path d="M27.2306 2.70356L25.0704 4.81114L32.0605 11.6787L34.2207 9.57117L27.2306 2.70356Z" fill="#007FFF"/>
<path d="M11.7111 31.5027C11.5485 31.5027 11.3908 31.44 11.2775 31.3242L4.92691 25.0874C4.6855 24.851 4.6855 24.47 4.92691 24.2336C5.16832 23.9972 5.55753 23.9972 5.79895 24.2336L12.1495 30.4753C12.386 30.7116 12.386 31.0879 12.1495 31.3242C12.0362 31.44 11.8786 31.5075 11.7111 31.5027Z" fill="#007FFF"/>
<path d="M2.29609 31.8981L1.33537 33.9916C1.1925 34.2955 1.33537 34.6572 1.64576 34.7971C1.80834 34.8695 1.99063 34.8695 2.15321 34.7971L4.29636 33.8324C3.37505 33.4996 2.64589 32.7953 2.29609 31.8981Z" fill="#007FFF"/>
<path d="M1.91665 35.1011C1.70973 35.0866 1.50773 35.0094 1.35008 34.8792C1.06432 34.6428 0.970716 34.2473 1.12837 33.9145L2.34036 31.2808L2.54728 31.8307C2.86752 32.67 3.54249 33.3357 4.39974 33.654L4.96139 33.8566L2.29602 35.0143C2.17777 35.0721 2.04968 35.1011 1.91665 35.1011ZM2.32065 32.4771L1.57671 34.0881C1.50773 34.2232 1.53237 34.3824 1.64076 34.4885C1.81319 34.6139 1.90187 34.6573 2.06446 34.5801L3.71985 33.8566C3.13357 33.5334 2.65074 33.0559 2.32065 32.4771Z" fill="#007FFF"/>
</g>
<defs>
<clipPath id="clip0_118_839">
<rect width="37" height="38" fill="white"/>
</clipPath>
</defs>
</svg>
