<svg width="39" height="32" viewBox="0 0 39 32" fill="none" xmlns="http://www.w3.org/2000/svg">
<g clip-path="url(#clip0_118_848)">
<path d="M34.4419 13.3942H4.5623C3.8323 13.3942 3.23918 12.7999 3.23462 12.0685V10.3314C3.23462 9.59535 3.82774 9.00107 4.5623 9.00107H34.4282C35.1582 9.00107 35.7514 9.59535 35.7514 10.3268C35.7514 10.3268 35.7514 10.3268 35.7514 10.3314V12.0685C35.7514 12.7954 35.1674 13.3851 34.4419 13.3942ZM4.61705 12.0228H34.3963V10.3725H4.61705V12.0228Z" fill="#007FFF"/>
<path d="M17.2916 28.1645H4.5623C3.8323 28.1645 3.23918 27.5656 3.23462 26.8342V16.4891C3.23462 15.7576 3.8323 15.1633 4.5623 15.1633H17.2916C18.0216 15.1633 18.6147 15.7576 18.6193 16.4891V26.8342C18.6193 27.5656 18.0216 28.1599 17.2916 28.1645ZM4.61705 26.7931H17.2505V16.5348H4.61705V26.7931Z" fill="#007FFF"/>
<path d="M34.442 28.1645H21.7264C20.9918 28.1645 20.3987 27.5702 20.3987 26.8342V16.4891C20.3987 15.7576 20.9918 15.1633 21.7218 15.1633C21.7218 15.1633 21.7218 15.1633 21.7264 15.1633H34.442C35.172 15.1633 35.7651 15.7576 35.7651 16.4891V26.8342C35.7651 27.5656 35.172 28.1599 34.442 28.1645ZM21.7674 26.7931H34.3963V16.5348H21.7674V26.7931Z" fill="#007FFF"/>
<path d="M35.3409 0H3.64998C1.63336 0 0 1.63657 0 3.65714V28.3429C0 30.3634 1.63336 32 3.64998 32H35.35C37.3666 32 39 30.3634 39 28.3429V3.65714C39 1.63657 37.3666 0 35.35 0C35.35 0 35.3455 0 35.3409 0ZM34.4284 2.74286C34.3098 2.51886 34.3919 2.24457 34.6155 2.12571C34.7478 2.05714 34.9075 2.05257 35.0398 2.12571L35.5873 2.67886L36.1165 2.144C36.2945 1.984 36.5682 2.00229 36.7279 2.18514C36.8693 2.34514 36.8739 2.58743 36.7279 2.752L36.2032 3.28686L36.7325 3.81257C36.8511 4.03657 36.7644 4.31086 36.5408 4.42971C36.4131 4.49829 36.258 4.49829 36.1256 4.43429L35.5827 3.904L35.058 4.43886C34.8846 4.59886 34.6155 4.59886 34.4421 4.43886C34.287 4.26514 34.287 4 34.4421 3.82629L34.9668 3.29143L34.4238 2.74743L34.4284 2.74286ZM33.087 3.41029C33.087 3.66171 32.8817 3.86743 32.6308 3.86743H31.0248C30.7876 3.78971 30.6552 3.52914 30.7328 3.29143C30.7784 3.15429 30.8879 3.04457 31.0248 2.99886H32.6582C32.9 2.99886 33.0916 3.19086 33.1053 3.43314L33.087 3.41029ZM35.3226 30.5874H3.64998C2.39073 30.5874 1.36874 29.5634 1.36874 28.3017V5.83314H37.613V28.3337C37.6084 29.5909 36.5956 30.6057 35.3409 30.6103L35.3226 30.5874Z" fill="#007FFF"/>
</g>
<defs>
<clipPath id="clip0_118_848">
<rect width="39" height="32" fill="white"/>
</clipPath>
</defs>
</svg>
