<svg width="33" height="38" viewBox="0 0 33 38" fill="none" xmlns="http://www.w3.org/2000/svg">
<g clip-path="url(#clip0_118_853)">
<path d="M10.0205 30.0817C10.0205 27.4953 8.00829 25.3466 5.39244 25.1476C6.39854 24.9487 7.16317 24.0733 7.16317 23.0387C7.16317 21.845 6.19732 20.89 4.99 20.89C3.78268 20.89 2.81683 21.845 2.81683 23.0387C2.81683 24.0733 3.58146 24.9487 4.58756 25.1476C2.01195 25.3864 -0.000244141 27.4953 -0.000244141 30.0817C-0.000244141 30.3602 0.241219 30.5989 0.522927 30.5989H2.6961V31.0366C2.6961 32.3099 3.74244 33.3445 5.03024 33.3445C6.31805 33.3445 7.36439 32.3099 7.36439 31.0366V30.5989H9.5778C9.77902 30.5989 10.0205 30.3602 10.0205 30.0817Z" fill="#007FFF"/>
<path d="M21.4902 34.7372C21.4902 32.1508 19.478 30.0022 16.8622 29.8032C17.8683 29.6042 18.6329 28.7289 18.6329 27.6943C18.6329 26.5006 17.667 25.5456 16.4597 25.5456C15.2524 25.5456 14.2866 26.5006 14.2866 27.6943C14.2866 28.7289 15.0512 29.6042 16.0573 29.8032C13.4817 30.0419 11.4695 32.1508 11.4695 34.7372C11.4695 35.0158 11.7109 35.2545 11.9927 35.2545H14.1658V35.6922C14.1658 36.9655 15.2122 38.0001 16.5 38.0001C17.7878 38.0001 18.8341 36.9655 18.8341 35.6922V35.2545H21.0475C21.2487 35.2545 21.4902 35.0158 21.4902 34.7372Z" fill="#007FFF"/>
<path d="M28.3316 25.1476C29.3377 24.9487 30.1023 24.0733 30.1023 23.0387C30.1023 21.845 29.1365 20.89 27.9292 20.89C26.7219 20.89 25.756 21.845 25.756 23.0387C25.756 24.0733 26.5206 24.9487 27.5267 25.1476C24.9511 25.3466 22.8987 27.4953 22.8987 30.0817C22.8987 30.3602 23.1401 30.5989 23.4219 30.5989H25.6353V31.0366C25.6353 32.3099 26.6816 33.3445 27.9694 33.3445C29.2572 33.3445 30.3036 32.3099 30.3036 31.0366V30.5989H32.4767C32.7584 30.5989 32.9999 30.3602 32.9999 30.0817C32.9194 27.4953 30.9072 25.3864 28.3316 25.1476Z" fill="#007FFF"/>
<path d="M16.5403 23.6754C16.3391 23.6754 16.1781 23.556 16.0976 23.3571L14.3269 18.423C13.2806 18.1843 12.2745 17.7466 11.3489 17.1099L6.19763 18.7016C5.99641 18.7414 5.7952 18.7016 5.67446 18.5424C5.55373 18.3832 5.55373 18.1843 5.63422 18.0251L8.25007 13.8471C7.48544 12.4545 7.083 10.9026 7.083 9.35079C7.12324 4.17801 11.3489 0 16.5806 0C21.8123 0 26.0379 4.17801 26.0379 9.35079C26.0379 10.9424 25.6354 12.534 24.8306 13.9267L27.3257 18.0251C27.4062 18.1843 27.4062 18.3832 27.2854 18.5424C27.1647 18.7016 26.9635 18.7414 26.8025 18.7016L21.7318 17.1895C20.9269 17.7068 20.0013 18.1047 19.0757 18.3832L16.983 23.3969C16.9025 23.556 16.7013 23.6754 16.5403 23.6754ZM11.3891 16.155C11.4696 16.155 11.5903 16.1948 11.6708 16.2346C12.5964 16.8712 13.6428 17.3487 14.7696 17.5874C14.9306 17.6272 15.0513 17.7466 15.0915 17.866L16.5806 21.9246L18.311 17.7864C18.3513 17.667 18.472 17.5476 18.633 17.5079C19.6391 17.2691 20.5647 16.8314 21.4098 16.2743C21.5306 16.1948 21.6513 16.155 21.8123 16.1948L25.9574 17.4283L23.9452 14.1257C23.8647 13.9665 23.8647 13.8073 23.9452 13.6482C24.7501 12.3351 25.1525 10.8628 25.1525 9.311C25.1525 4.6555 21.3293 0.875393 16.6208 0.875393C11.9123 0.875393 8.0891 4.6555 8.0891 9.311C8.0891 10.823 8.49154 12.2953 9.25617 13.6084C9.33666 13.7675 9.33666 13.9267 9.25617 14.0859L7.12324 17.4681L11.3086 16.1948C11.3086 16.155 11.3489 16.155 11.3891 16.155Z" fill="#007FFF"/>
<path d="M11.7912 10.982C10.9461 10.982 10.262 10.3056 10.262 9.46996C10.262 8.63436 10.9461 7.95792 11.7912 7.95792C12.6364 7.95792 13.3205 8.63436 13.3205 9.46996C13.3205 10.3056 12.6364 10.982 11.7912 10.982ZM11.7912 8.8731C11.4693 8.8731 11.1876 9.15163 11.1876 9.46996C11.1876 9.78828 11.4693 10.0668 11.7912 10.0668C12.1132 10.0668 12.3949 9.78828 12.3949 9.46996C12.3949 9.15163 12.1534 8.8731 11.7912 8.8731Z" fill="#007FFF"/>
<path d="M16.5803 10.982C15.7352 10.982 15.051 10.3056 15.051 9.46996C15.051 8.63436 15.7352 7.95792 16.5803 7.95792C17.4254 7.95792 18.1096 8.63436 18.1096 9.46996C18.1096 10.3056 17.4254 10.982 16.5803 10.982ZM16.5803 8.8731C16.2583 8.8731 15.9766 9.15163 15.9766 9.46996C15.9766 9.78828 16.2583 10.0668 16.5803 10.0668C16.9022 10.0668 17.184 9.78828 17.184 9.46996C17.184 9.15163 16.9022 8.8731 16.5803 8.8731Z" fill="#007FFF"/>
<path d="M21.3694 10.982C20.5242 10.982 19.8401 10.3056 19.8401 9.46996C19.8401 8.63436 20.5242 7.95792 21.3694 7.95792C22.2145 7.95792 22.8986 8.63436 22.8986 9.46996C22.8986 10.3056 22.2145 10.982 21.3694 10.982ZM21.3694 8.8731C21.0474 8.8731 20.7657 9.15163 20.7657 9.46996C20.7657 9.78828 21.0474 10.0668 21.3694 10.0668C21.6913 10.0668 21.973 9.78828 21.973 9.46996C21.973 9.15163 21.6913 8.8731 21.3694 8.8731Z" fill="#007FFF"/>
</g>
<defs>
<clipPath id="clip0_118_853">
<rect width="33" height="38" fill="white"/>
</clipPath>
</defs>
</svg>
