<?xml version="1.0" encoding="UTF-8"?>
<svg id="Layer_1" xmlns="http://www.w3.org/2000/svg" version="1.1" viewBox="0 0 50 54.04">
  <!-- Generator: Adobe Illustrator 29.8.2, SVG Export Plug-In . SVG Version: 2.1.1 Build 3)  -->
  <defs>
    <style>
      .st0 {
        fill: #cce5ff;
        opacity: .5;
      }
    </style>
  </defs>
  <path class="st0" d="M12.55,25.1c6.97,0,12.55-5.58,12.55-12.55S19.52,0,12.55,0,0,5.58,0,12.55s5.58,12.55,12.55,12.55M12.55,8.57c2.39,0,4.18,1.79,4.18,4.18s-1.79,4.18-4.18,4.18-4.18-1.79-4.18-4.18,1.79-4.18,4.18-4.18"/>
  <path class="st0" d="M12.55,54.05c6.97,0,12.55-5.58,12.55-12.55s-5.58-12.55-12.55-12.55S0,34.53,0,41.5s5.58,12.55,12.55,12.55M12.55,37.52c2.39,0,4.18,1.79,4.18,4.18s-1.79,4.18-4.18,4.18-4.18-1.79-4.18-4.18,1.79-4.18,4.18-4.18"/>
  <path class="st0" d="M37.45,39.71c6.97,0,12.55-5.58,12.55-12.55s-5.58-12.55-12.55-12.55-12.55,5.58-12.55,12.55,5.58,12.55,12.55,12.55M37.45,23.18c2.39,0,4.18,1.79,4.18,4.18s-1.79,4.18-4.18,4.18-4.18-1.79-4.18-4.18,1.79-4.18,4.18-4.18"/>
</svg>