<?xml version="1.0" encoding="UTF-8"?>
<svg id="Layer_1" xmlns="http://www.w3.org/2000/svg" version="1.1" viewBox="0 0 50 54.04">
  <!-- Generator: Adobe Illustrator 29.8.2, SVG Export Plug-In . SVG Version: 2.1.1 Build 3)  -->
  <defs>
    <style>
      .st0 {
        fill: #cce5ff;
      }
    </style>
  </defs>
  <path class="st0" d="M37.45,28.95c-6.97,0-12.55,5.58-12.55,12.55s5.58,12.55,12.55,12.55,12.55-5.58,12.55-12.55-5.58-12.55-12.55-12.55M37.45,45.48c-2.39,0-4.18-1.79-4.18-4.18s1.79-4.18,4.18-4.18,4.18,1.79,4.18,4.18-1.79,4.18-4.18,4.18"/>
  <path class="st0" d="M37.45,0c-6.97,0-12.55,5.58-12.55,12.55s5.58,12.55,12.55,12.55,12.55-5.58,12.55-12.55S44.42,0,37.45,0M37.45,16.53c-2.39,0-4.18-1.79-4.18-4.18s1.79-4.18,4.18-4.18,4.18,1.79,4.18,4.18-1.79,4.18-4.18,4.18"/>
  <path class="st0" d="M12.55,14.34C5.58,14.34,0,19.92,0,26.89s5.58,12.55,12.55,12.55,12.55-5.58,12.55-12.55-5.58-12.55-12.55-12.55M12.55,30.87c-2.39,0-4.18-1.79-4.18-4.18s1.79-4.18,4.18-4.18,4.18,1.79,4.18,4.18-1.79,4.18-4.18,4.18"/>
</svg>